<?xml version="1.0" encoding="utf-8"?>
<!-- Generator: Adobe Illustrator 22.0.1, SVG Export Plug-In . SVG Version: 6.00 Build 0)  -->
<svg version="1.1" id="_x32__copy" xmlns="http://www.w3.org/2000/svg" xmlns:xlink="http://www.w3.org/1999/xlink" x="0px" y="0px"
	 width="159px" height="100px" viewBox="0 0 159 100" style="enable-background:new 0 0 159 100;" xml:space="preserve">
<style type="text/css">
	.st0{fill:#0093D0;}
	.st1{fill:#78278B;}
	.st2{fill:#2A3980;}
	.st3{fill:#8DC63F;}
	.st4{fill:#5B3336;}
</style>
<g>
	<g>
		<polygon class="st0" points="95.7,16.2 90.8,14.1 84.2,25.9 92.9,24.8 		"/>
	</g>
</g>
<g>
	<g>
		<polygon class="st1" points="79.1,26.2 78.1,30 81.6,30.6 85,25.5 		"/>
	</g>
</g>
<g>
	<g>
		<polygon class="st1" points="97.6,24.1 92.8,24.6 90.4,32 94.8,32.7 		"/>
	</g>
</g>
<g>
	<g>
		<g>
			<path class="st2" d="M39.3,72.4c-1.6,0-3.1-0.3-4.6-0.9C33.3,71,32,70.2,31,69.1c-1.1-1-1.9-2.3-2.5-3.7c-0.6-1.4-0.9-3-0.9-4.8
				c0-1.7,0.3-3.3,0.9-4.8c0.6-1.4,1.5-2.7,2.5-3.7c1.1-1,2.3-1.8,3.7-2.4c1.4-0.6,3-0.9,4.6-0.9c4.1,0,7.1,1.5,9.1,4.4l-1.9,1.3
				c-0.7-1.1-1.7-2-2.9-2.6s-2.7-1-4.3-1c-1.3,0-2.6,0.2-3.7,0.7c-1.1,0.5-2.1,1.2-2.9,2c-0.8,0.9-1.5,1.9-1.9,3
				c-0.5,1.2-0.7,2.4-0.7,3.8c0,1.4,0.2,2.6,0.7,3.8c0.5,1.2,1.1,2.2,1.9,3c0.8,0.9,1.8,1.5,2.9,2c1.1,0.5,2.4,0.7,3.7,0.7
				c1.7,0,3.2-0.3,4.4-1c1.3-0.7,2.3-1.6,3.1-2.8l1.9,1.3c-1,1.5-2.3,2.6-3.9,3.5C43.2,72,41.4,72.4,39.3,72.4"/>
			<polygon class="st2" points="51.7,49.2 54.1,49.2 54.1,62.1 66.4,62.1 66.4,49.2 68.8,49.2 68.8,72.1 66.4,72.1 66.4,64.3 
				54.1,64.3 54.1,72.1 51.7,72.1 			"/>
			<path class="st2" d="M95.8,56.2c-0.2-0.2-0.3-0.4-0.5-0.7c-0.2-0.2-0.4-0.5-0.5-0.7c-0.2-0.2-0.4-0.5-0.5-0.8
				c0,0.3,0.1,0.6,0.1,0.9c0.1,0.5,0.1,1.1,0.1,1.7v15.5h-2.3V49h0.4l13.7,16.2c0.2,0.2,0.4,0.4,0.5,0.6c0.2,0.3,0.4,0.5,0.5,0.7
				c0.2,0.2,0.4,0.5,0.5,0.8c0-0.3,0-0.6-0.1-0.9c0-0.3,0-0.6-0.1-0.8c0-0.3,0-0.6,0-0.8V49.2h2.2v23.2h-0.4L95.8,56.2z"/>
			<path class="st2" d="M124.9,72.4c-1.7,0-3.3-0.3-4.8-0.9s-2.7-1.4-3.8-2.4c-1.1-1-1.9-2.3-2.5-3.7c-0.6-1.4-0.9-3-0.9-4.8
				c0-1.7,0.3-3.3,0.9-4.8c0.6-1.4,1.4-2.7,2.5-3.7s2.3-1.8,3.7-2.4c1.4-0.6,3-0.9,4.7-0.9s3.2,0.2,4.5,0.7c1.4,0.5,2.5,1.2,3.5,2.2
				l-1.7,1.7c-0.7-0.8-1.6-1.4-2.7-1.8c-1-0.4-2.3-0.6-3.7-0.6c-1.3,0-2.6,0.2-3.7,0.7s-2.1,1.2-2.9,2c-0.8,0.9-1.5,1.9-1.9,3
				c-0.5,1.2-0.7,2.4-0.7,3.8c0,1.4,0.2,2.6,0.7,3.8c0.5,1.2,1.1,2.2,2,3c0.8,0.9,1.8,1.5,3,2s2.4,0.7,3.8,0.7c1.6,0,2.9-0.2,4-0.6
				c1.1-0.4,2-0.9,2.8-1.5v-3.8h-6.8v-2.2h9.1V69c-0.8,0.8-2,1.6-3.5,2.2C128.9,72.1,127.1,72.4,124.9,72.4"/>
			<polygon class="st2" points="137.2,49.2 151.2,49.2 151.2,51.4 139.7,51.4 139.7,62.1 150,62.1 150,64.3 139.7,64.3 139.7,70 
				151.7,70 151.7,72.1 137.2,72.1 			"/>
			<path class="st2" d="M80.4,48.5l-9.8,23.6h2.2l2.4-5.7l0.9-2.1h8.5l1,2.2l2.4,5.6h2.2L80.4,48.5z M80.4,54.4l3.3,7.7h-6.6
				L80.4,54.4z"/>
		</g>
	</g>
</g>
<g>
	<g>
		<path class="st3" d="M25.6,64.7v1.9h-2.9v5.6h-2.3v-5.6H10.1H8.3l14.4-16.4v0.6v13.9H25.6L25.6,64.7z M20.4,58.2
			c0-0.2,0-0.5,0-0.7c0-0.3,0-0.5,0-0.8s0-0.5,0-0.5s-0.1,0.1-0.3,0.3c-0.2,0.2-0.3,0.4-0.4,0.5c-0.2,0.2-0.3,0.4-0.5,0.6l-4.9,5.8
			c-0.4,0.4-0.7,0.7-1.1,1.1c-0.1,0.1-0.3,0.3-0.3,0.3s0.3,0,0.4,0H14h0.7h5.6L20.4,58.2L20.4,58.2L20.4,58.2z"/>
	</g>
</g>
<g>
	<g>
		<polygon class="st3" points="85.3,7.6 72.9,14.8 72.9,26.9 79.3,26.2 		"/>
	</g>
</g>
<g>
	<g>
		<polygon class="st0" points="78.2,36.6 86.4,45.4 90.7,31.8 81.6,30.5 		"/>
	</g>
</g>
<g>
	<g>
		<polygon class="st4" points="72.9,26.9 78.1,30 79.3,26.2 		"/>
	</g>
</g>
<g>
	<g>
		<polygon class="st2" points="84.4,25.6 81.6,30.6 90.6,32 93,24.6 		"/>
	</g>
</g>
<g>
	<g>
		<g>
			<path class="st1" d="M30.8,87c-0.7,0.5-1.6,0.8-2.7,0.8c-0.8,0-1.4-0.1-2-0.4c-0.6-0.2-1-0.6-1.4-1s-0.7-1-0.9-1.6
				c-0.2-0.6-0.3-1.3-0.3-2s0.1-1.4,0.3-2c0.2-0.6,0.5-1.1,0.9-1.6c0.4-0.4,0.9-0.8,1.4-1s1.1-0.4,1.8-0.4c0.8,0,1.5,0.2,2.1,0.5
				s1,0.8,1.3,1.3s0.6,1.1,0.7,1.8c0.1,0.6,0.2,1.2,0.2,1.8h-7.1c0,0.4,0,0.8,0.1,1.2c0.1,0.4,0.3,0.7,0.5,1s0.6,0.5,0.9,0.7
				c0.4,0.2,0.8,0.3,1.3,0.3c0.7,0,1.2-0.2,1.6-0.5s0.7-0.8,0.8-1.4h1.5C32,85.6,31.5,86.4,30.8,87 M30.4,80.9
				c-0.1-0.3-0.3-0.6-0.6-0.9c-0.2-0.2-0.5-0.4-0.8-0.6c-0.3-0.1-0.7-0.2-1.1-0.2s-0.8,0.1-1.1,0.2c-0.3,0.1-0.6,0.3-0.8,0.6
				c-0.2,0.2-0.4,0.5-0.6,0.9c-0.1,0.3-0.2,0.7-0.2,1h5.5C30.6,81.5,30.6,81.2,30.4,80.9"/>
			<path class="st1" d="M37.1,78.1v1.5l0,0c0.6-1.2,1.7-1.7,3.1-1.7c0.6,0,1.1,0.1,1.6,0.3c0.4,0.2,0.8,0.4,1,0.7
				c0.3,0.3,0.4,0.7,0.5,1.1s0.2,0.9,0.2,1.4v6.2h-1.6v-6.4c0-0.6-0.2-1.1-0.5-1.4s-0.8-0.5-1.4-0.5c-0.5,0-0.9,0.1-1.2,0.2
				s-0.6,0.4-0.9,0.6c-0.2,0.3-0.4,0.6-0.5,0.9c-0.1,0.4-0.2,0.8-0.2,1.2v5.4h-1.6v-9.5L37.1,78.1L37.1,78.1z"/>
			<path class="st1" d="M53.9,87c-0.7,0.5-1.6,0.8-2.7,0.8c-0.8,0-1.4-0.1-2-0.4c-0.6-0.2-1-0.6-1.4-1s-0.7-1-0.9-1.6
				s-0.3-1.3-0.3-2s0.1-1.4,0.3-2s0.5-1.1,0.9-1.6c0.4-0.4,0.9-0.8,1.4-1s1.1-0.4,1.8-0.4c0.8,0,1.5,0.2,2.1,0.5s1,0.8,1.3,1.3
				s0.6,1.1,0.7,1.8c0.1,0.6,0.2,1.2,0.2,1.8h-7.1c0,0.4,0,0.8,0.1,1.2c0.1,0.4,0.3,0.7,0.5,1s0.6,0.5,0.9,0.7
				c0.4,0.2,0.8,0.3,1.3,0.3c0.7,0,1.2-0.2,1.6-0.5c0.4-0.3,0.7-0.8,0.8-1.4h1.5C55,85.6,54.6,86.4,53.9,87 M53.5,80.9
				c-0.1-0.3-0.3-0.6-0.6-0.9c-0.2-0.2-0.5-0.4-0.8-0.6c-0.3-0.1-0.7-0.2-1.1-0.2c-0.4,0-0.8,0.1-1.1,0.2s-0.6,0.3-0.8,0.6
				c-0.2,0.2-0.4,0.5-0.6,0.9c-0.1,0.3-0.2,0.7-0.2,1h5.5C53.7,81.5,53.6,81.2,53.5,80.9"/>
			<path class="st1" d="M60.5,78.1v2l0,0c0.4-0.8,0.8-1.3,1.4-1.7c0.6-0.4,1.3-0.5,2.1-0.5v1.7c-0.6,0-1.2,0.1-1.6,0.3
				c-0.4,0.2-0.8,0.4-1.1,0.8c-0.3,0.3-0.5,0.7-0.6,1.2s-0.2,1-0.2,1.6v4.2H59v-9.5L60.5,78.1L60.5,78.1z"/>
			<path class="st1" d="M73.4,90.3c-0.7,0.8-1.8,1.2-3.3,1.2c-0.4,0-0.9,0-1.4-0.1s-0.9-0.3-1.3-0.5s-0.7-0.5-0.9-0.9
				c-0.2-0.4-0.4-0.8-0.4-1.3h1.6c0,0.3,0.1,0.5,0.3,0.7c0.2,0.2,0.4,0.4,0.6,0.5s0.5,0.2,0.8,0.3c0.3,0.1,0.6,0.1,0.8,0.1
				c0.5,0,0.9-0.1,1.3-0.3c0.4-0.2,0.6-0.4,0.9-0.7c0.2-0.3,0.4-0.7,0.5-1.1s0.2-0.9,0.2-1.5V86l0,0c-0.3,0.6-0.7,1-1.2,1.3
				s-1.1,0.4-1.7,0.4c-0.7,0-1.3-0.1-1.9-0.4c-0.5-0.3-1-0.6-1.3-1s-0.6-0.9-0.8-1.5c-0.2-0.6-0.3-1.2-0.3-1.9
				c0-0.6,0.1-1.1,0.2-1.7s0.4-1.1,0.7-1.6c0.3-0.5,0.8-0.9,1.4-1.2c0.6-0.3,1.3-0.5,2.1-0.5c0.6,0,1.2,0.1,1.7,0.4s0.9,0.7,1.2,1.2
				l0,0v-1.4h1.5v8.7C74.5,88.3,74.1,89.5,73.4,90.3 M71.4,86c0.4-0.2,0.7-0.5,0.9-0.8c0.2-0.4,0.4-0.7,0.5-1.2
				c0.1-0.4,0.2-0.9,0.2-1.3s0-0.8-0.1-1.2c-0.1-0.4-0.3-0.8-0.5-1.1c-0.2-0.3-0.5-0.6-0.8-0.8c-0.3-0.2-0.8-0.3-1.3-0.3
				s-0.9,0.1-1.3,0.3c-0.4,0.2-0.6,0.4-0.9,0.8c-0.2,0.3-0.4,0.7-0.5,1.1s-0.2,0.9-0.2,1.3s0,0.9,0.1,1.3s0.2,0.8,0.4,1.2
				c0.2,0.3,0.5,0.6,0.8,0.8c0.3,0.2,0.8,0.3,1.3,0.3C70.6,86.3,71.1,86.2,71.4,86"/>
			<path class="st1" d="M81.7,90c-0.2,0.3-0.4,0.6-0.6,0.8c-0.2,0.2-0.4,0.4-0.7,0.4c-0.3,0.1-0.6,0.1-0.9,0.1c-0.2,0-0.4,0-0.6,0
				s-0.4-0.1-0.5-0.1v-1.4c0.1,0,0.3,0.1,0.5,0.1s0.3,0.1,0.5,0.1c0.3,0,0.6-0.1,0.8-0.2c0.2-0.1,0.4-0.4,0.5-0.6l0.6-1.6l-3.8-9.4
				h1.8l2.8,7.8l0,0l2.7-7.8h1.7L82.4,89C82,89.3,81.9,89.7,81.7,90"/>
		</g>
	</g>
</g>
</svg>
