<svg width="148" height="35" viewBox="0 0 148 35" fill="none" xmlns="http://www.w3.org/2000/svg">
<path fill-rule="evenodd" clip-rule="evenodd" d="M139.769 24.8731C138.842 24.9661 137.909 24.7698 137.099 24.3112C136.288 23.8526 135.64 23.1542 135.242 22.312C134.845 21.4698 134.718 20.5253 134.88 19.6081C135.041 18.6909 135.482 17.8462 136.143 17.1901C136.804 16.534 137.652 16.0988 138.57 15.9441C139.488 15.7895 140.432 15.9231 141.271 16.3265C142.111 16.73 142.804 17.3836 143.257 18.1973C143.71 19.0111 143.899 19.9451 143.8 20.871C143.688 21.8992 143.227 22.8579 142.493 23.5865C141.76 24.3151 140.797 24.7694 139.769 24.8731ZM140.223 12.457C138.319 12.241 136.401 12.7224 134.825 13.812V13.3658C134.825 13.2602 134.783 13.159 134.709 13.0843C134.634 13.0096 134.533 12.9677 134.427 12.9677H131.77C131.664 12.9677 131.563 13.0096 131.488 13.0843C131.413 13.1589 131.371 13.2602 131.371 13.3658V34.2034C131.371 34.309 131.413 34.4103 131.488 34.485C131.562 34.5596 131.664 34.6016 131.769 34.6016H134.43C134.536 34.6016 134.637 34.5596 134.712 34.485C134.787 34.4104 134.829 34.3091 134.829 34.2034V26.9607C136.09 27.8265 137.573 28.311 139.102 28.3563C140.63 28.4015 142.14 28.0056 143.449 27.2159C144.759 26.4261 145.813 25.276 146.486 23.9029C147.16 22.5298 147.423 20.9918 147.246 19.4729C146.835 15.8052 143.893 12.8576 140.223 12.4595V12.457Z" fill="#223152"/>
<path fill-rule="evenodd" clip-rule="evenodd" d="M121.903 24.844C120.979 24.9388 120.048 24.7451 119.239 24.2896C118.429 23.834 117.78 23.139 117.381 22.2999C116.982 21.4608 116.853 20.5188 117.011 19.6033C117.169 18.6878 117.607 17.8437 118.264 17.1869C118.921 16.5301 119.765 16.0929 120.681 15.9352C121.596 15.7775 122.538 15.9071 123.377 16.3063C124.216 16.7055 124.911 17.3546 125.366 18.1645C125.821 18.9743 126.015 19.9053 125.92 20.8294C125.813 21.8581 125.356 22.8187 124.624 23.5498C123.893 24.2809 122.932 24.7379 121.903 24.844ZM122.311 12.4535C120.672 12.2746 119.018 12.6089 117.577 13.4102C116.136 14.2116 114.98 15.4405 114.267 16.9273C113.554 18.4141 113.32 20.0855 113.598 21.7107C113.876 23.336 114.651 24.8349 115.817 26.0006C116.983 27.1664 118.482 27.9414 120.108 28.2188C121.733 28.4961 123.404 28.2621 124.891 27.5491C126.378 26.836 127.606 25.679 128.407 24.2379C129.208 22.7967 129.542 21.1424 129.363 19.5034C129.163 17.702 128.356 16.0222 127.075 14.7408C125.793 13.4593 124.113 12.6526 122.311 12.4535Z" fill="#223152"/>
<path fill-rule="evenodd" clip-rule="evenodd" d="M109.708 14.1271C110.861 15.2617 111.437 16.9417 111.437 19.1672V27.587C111.437 27.6926 111.395 27.7939 111.32 27.8686C111.246 27.9432 111.145 27.9852 111.039 27.9852H108.293C108.188 27.9852 108.086 27.9431 108.011 27.8683C107.936 27.7935 107.894 27.692 107.894 27.5862V19.6333C107.894 18.2857 107.581 17.2783 106.962 16.5921C106.343 15.9059 105.454 15.5666 104.293 15.5666C102.988 15.5666 101.963 15.9647 101.2 16.7602C100.436 17.5556 100.063 18.712 100.063 20.2085V27.587C100.063 27.6926 100.021 27.7939 99.9465 27.8686C99.8718 27.9432 99.7705 27.9852 99.665 27.9852H96.9177C96.8653 27.9852 96.8135 27.9748 96.7651 27.9548C96.7168 27.9347 96.6728 27.9053 96.6359 27.8683C96.5989 27.8312 96.5696 27.7872 96.5496 27.7388C96.5296 27.6904 96.5194 27.6386 96.5195 27.5862V4.92842C96.5195 4.82282 96.5615 4.72155 96.6362 4.64689C96.7108 4.57222 96.8121 4.53027 96.9177 4.53027H99.6633C99.7689 4.53027 99.8702 4.57222 99.9448 4.64689C100.019 4.72155 100.061 4.82282 100.061 4.92842V14.3895C100.663 13.7436 101.405 13.2451 102.231 12.9327C103.151 12.5827 104.128 12.4092 105.112 12.4211C107.021 12.4316 108.553 13.0003 109.708 14.1271Z" fill="#223152"/>
<path fill-rule="evenodd" clip-rule="evenodd" d="M87.2278 27.9935H84.2106C84.1583 27.9935 84.1064 27.9831 84.0581 27.9631C84.0097 27.943 83.9658 27.9136 83.9288 27.8765C83.8918 27.8395 83.8625 27.7955 83.8426 27.7471C83.8226 27.6987 83.8124 27.6468 83.8125 27.5945V4.92842C83.8125 4.82282 83.8544 4.72155 83.9291 4.64689C84.0038 4.57222 84.1051 4.53027 84.2106 4.53027H87.2278C87.3334 4.53027 87.4346 4.57222 87.5093 4.64689C87.584 4.72155 87.6259 4.82282 87.6259 4.92842V27.587C87.6268 27.6399 87.6172 27.6925 87.5976 27.7417C87.578 27.7908 87.5488 27.8356 87.5118 27.8734C87.4747 27.9112 87.4306 27.9413 87.3818 27.9619C87.3331 27.9825 87.2807 27.9932 87.2278 27.9935Z" fill="#223152"/>
<path fill-rule="evenodd" clip-rule="evenodd" d="M93.5793 27.9932H90.5622C90.4565 27.993 90.3553 27.9509 90.2806 27.8761C90.206 27.8013 90.1641 27.6999 90.1641 27.5943V4.93647C90.1641 4.83088 90.206 4.72961 90.2807 4.65494C90.3553 4.58028 90.4566 4.53833 90.5622 4.53833H93.5793C93.6849 4.53833 93.7862 4.58028 93.8609 4.65494C93.9355 4.72961 93.9775 4.83088 93.9775 4.93647V27.5951C93.9775 27.7007 93.9355 27.802 93.8609 27.8766C93.7862 27.9513 93.6849 27.9932 93.5793 27.9932Z" fill="#223152"/>
<path fill-rule="evenodd" clip-rule="evenodd" d="M77.3691 17.1934C76.1912 15.999 74.4116 15.4552 72.8347 15.9733C71.1991 16.5072 70.1735 17.8713 69.8689 19.6502L77.3691 17.1934ZM70.589 22.6027C71.1147 24.2119 73.6144 25.4824 75.7757 24.7714C76.9113 24.3989 77.7838 23.6126 78.3516 22.6532C78.4003 22.5669 78.4799 22.5022 78.5744 22.4724C78.669 22.4426 78.7713 22.4498 78.8607 22.4926L81.3439 23.7342C81.3932 23.758 81.4371 23.7916 81.4729 23.8329C81.5088 23.8743 81.5359 23.9224 81.5525 23.9746C81.5692 24.0267 81.5751 24.0816 81.5698 24.1361C81.5645 24.1905 81.5482 24.2434 81.5219 24.2913C80.7577 25.6548 79.6133 26.7666 78.2283 27.4911C76.8433 28.2156 75.2774 28.5216 73.7216 28.3717C72.1657 28.2219 70.687 27.6227 69.4658 26.6471C68.2445 25.6716 67.3334 24.3618 66.8435 22.8775C65.462 18.642 67.6481 14.1523 71.7843 12.789C75.8858 11.4423 80.3009 13.7633 81.6824 17.998C81.7503 18.2182 81.8008 18.3796 81.8347 18.5145C81.8604 18.6133 81.8475 18.7182 81.7988 18.8079C81.7501 18.8976 81.6692 18.9655 81.5724 18.9979L70.589 22.6027Z" fill="#223152"/>
<path fill-rule="evenodd" clip-rule="evenodd" d="M57.9479 24.5202H54.007V17.7443H57.4314C59.6597 17.7443 61.0834 18.9553 61.0834 21.0479C61.0801 23.4111 59.4056 24.5202 57.9479 24.5202ZM56.7535 7.83379C58.1433 7.83379 60.4055 8.42646 60.4055 10.9792C60.4055 13.3681 58.7276 14.2488 57.4993 14.2488H54.0161V7.83379H56.7535ZM60.9228 15.8215C62.3126 15.1692 64.2197 14.1188 64.2197 10.5529C64.2197 6.4614 60.5669 4.53027 57.0755 4.53027H50.5918C50.4862 4.53027 50.3849 4.57222 50.3102 4.64689C50.2356 4.72155 50.1936 4.82282 50.1936 4.92842L50.168 27.5953C50.168 27.6477 50.1783 27.6995 50.1984 27.7479C50.2184 27.7962 50.2478 27.8402 50.2849 27.8771C50.3219 27.9141 50.3659 27.9434 50.4143 27.9634C50.4627 27.9833 50.5146 27.9936 50.5669 27.9935H57.6599C60.7366 27.9935 64.9986 26.0284 64.9986 21.9029C64.9986 17.2609 62.3126 16.4398 60.9228 15.8215Z" fill="#223152"/>
<path d="M38.9684 10.3251C37.8186 7.56165 35.8737 5.202 33.3806 3.54557C30.8876 1.88913 27.9587 1.01056 24.9655 1.02132L0.13575 0.997314C0.0998137 0.997532 0.0654112 1.0119 0.0400001 1.03731C0.014589 1.06273 0.000217142 1.09713 0 1.13306H0C-2.52761e-08 2.08612 0.378545 3.00016 1.05238 3.67415C1.72622 4.34815 2.64017 4.7269 3.59323 4.72712H24.8985C27.1386 4.72087 29.3314 5.37124 31.2059 6.59782C31.2305 6.61367 31.2492 6.63708 31.2594 6.66453C31.2695 6.69198 31.2704 6.72197 31.262 6.74999C31.2536 6.77802 31.2363 6.80255 31.2128 6.81989C31.1892 6.83723 31.1606 6.84644 31.1314 6.84614H4.10808C4.06418 6.84614 4.02207 6.86358 3.99102 6.89463C3.95998 6.92567 3.94254 6.96778 3.94254 7.01169C3.94199 7.47945 4.03365 7.94273 4.21228 8.37504C4.39091 8.80735 4.653 9.20021 4.98356 9.53116C5.31413 9.86211 5.70669 10.1247 6.13879 10.3038C6.57089 10.4829 7.03407 10.5751 7.50183 10.5751H34.7561C34.8127 10.5753 34.8682 10.5907 34.9167 10.6199C34.9652 10.649 35.005 10.6908 35.0317 10.7407C35.3438 11.3104 35.6066 11.9058 35.8172 12.5203C35.8251 12.544 35.8272 12.5693 35.8234 12.594C35.8196 12.6187 35.81 12.6422 35.7954 12.6624C35.7807 12.6827 35.7615 12.6992 35.7393 12.7107C35.717 12.7221 35.6924 12.728 35.6674 12.7281H9.87C9.81466 12.7281 9.76156 12.7499 9.7222 12.7888C9.68284 12.8277 9.6604 12.8805 9.65975 12.9358C9.6523 13.6502 9.62747 15.9836 9.62747 16.275C9.62873 18.5368 10.1324 20.7702 11.1022 22.8137C12.072 24.8571 13.4835 26.6597 15.235 28.091C16.9864 29.5223 19.0339 30.5467 21.2295 31.0902C23.4252 31.6336 25.7141 31.6825 27.931 31.2333C30.1478 30.7842 32.2372 29.8482 34.0481 28.4929C35.8591 27.1377 37.3464 25.3971 38.4025 23.397C39.4587 21.3968 40.0573 19.187 40.1552 16.9272C40.2531 14.6674 39.8477 12.4141 38.9684 10.3301V10.3251ZM36.4207 16.8718C36.3443 18.4095 35.9592 19.9161 35.2883 21.3018C34.7348 22.4523 33.8057 23.3796 32.6542 23.9309C31.5027 24.4821 30.1976 24.6242 28.9544 24.3338C27.2968 23.9353 25.7416 23.1922 24.3903 22.1527C24.3621 22.1271 24.3253 22.1129 24.2872 22.1129C24.2491 22.1129 24.2123 22.1271 24.1841 22.1527L22.705 23.6112C22.6913 23.6248 22.6804 23.641 22.673 23.6589C22.6656 23.6767 22.6618 23.6958 22.6618 23.7151C22.6618 23.7344 22.6656 23.7535 22.673 23.7714C22.6804 23.7892 22.6913 23.8054 22.705 23.819C24.406 25.5183 26.8122 26.6855 27.8047 27.1233C27.8392 27.1372 27.8683 27.1618 27.8878 27.1935C27.9072 27.2252 27.916 27.2622 27.9129 27.2993C27.9098 27.3363 27.8948 27.3714 27.8703 27.3993C27.8457 27.4272 27.8129 27.4466 27.7765 27.4544C25.729 27.9682 23.5819 27.9305 21.5536 27.3452C20.8133 27.1372 20.1003 26.8421 19.4296 26.4661C15.747 24.3968 13.57 20.8151 13.3713 16.8643C13.3688 16.8112 13.377 16.7581 13.3957 16.7084C13.4143 16.6586 13.4429 16.6131 13.4797 16.5747C13.5165 16.5364 13.5607 16.5059 13.6097 16.4853C13.6587 16.4646 13.7114 16.4542 13.7645 16.4546H36.0217C36.0756 16.4546 36.129 16.4656 36.1785 16.4868C36.2281 16.508 36.2729 16.5391 36.3102 16.578C36.3474 16.617 36.3764 16.6631 36.3954 16.7136C36.4144 16.7641 36.423 16.8179 36.4207 16.8718Z" fill="url(#paint0_linear)"/>
<defs>
<linearGradient id="paint0_linear" x1="40.1695" y1="0.97702" x2="38.629" y2="33.3742" gradientUnits="userSpaceOnUse">
<stop stop-color="#3DDB93"/>
<stop offset="1" stop-color="#16D3A9"/>
</linearGradient>
</defs>
</svg>
