<svg xmlns="http://www.w3.org/2000/svg" width="169" height="58" viewBox="0 0 169 58" fill="none"><g clip-path="url(#clip0_848_242)"><path d="M31.828 10.0603L22.8589 19.5276C22.6198 19.7786 22.2373 19.8065 21.9544 19.6033C20.6275 18.659 19.1692 17.9457 17.6311 17.4756C17.3522 17.3919 17.153 17.1528 17.141 16.8619C17.0374 14.8258 16.639 6.89662 16.5394 4.86052C16.5234 4.56965 16.6948 4.30667 16.9617 4.19511L25.9628 0.437691C26.2776 0.306201 26.6442 0.425737 26.8235 0.720592L31.9197 9.22757C32.0791 9.49454 32.0432 9.83322 31.828 10.0564M14.1128 15.7622C14.1008 15.1287 13.5829 5.20319 13.5829 5.20319C13.5669 4.86849 13.3119 4.59356 12.9812 4.55371L0.78055 3.00771C0.274514 2.94396 -0.127923 3.42609 0.0354425 3.90822C1.05548 6.93248 4.00802 15.6825 4.9165 18.384C5.05595 18.7984 5.53808 18.9658 5.9206 18.7506C8.01646 17.5752 10.3713 16.9655 12.8417 16.838C13.7781 16.7902 14.1287 16.7583 14.1088 15.7662M34.0076 12.1283L25.0225 21.5836C24.7834 21.8346 24.7754 22.2171 24.9906 22.4881C26.0026 23.7631 26.7916 25.1816 27.3415 26.6958C27.4411 26.9707 27.6881 27.154 27.979 27.154C30.0191 27.15 37.9562 27.1341 39.9923 27.1301C40.2832 27.1301 40.5382 26.9468 40.6339 26.6719L43.9171 17.4835C44.0327 17.1608 43.8932 16.8022 43.5904 16.6388L34.8284 11.9968C34.5535 11.8494 34.2188 11.9052 34.0036 12.1323M28.238 31.4413C28.238 33.9118 27.7558 36.2985 26.692 38.4541C26.4967 38.8486 26.692 39.3188 27.1143 39.4383L41.8173 43.5543C42.3074 43.6938 42.7735 43.2674 42.6859 42.7654L40.4984 30.6683C40.4386 30.3376 40.1517 30.0986 39.817 30.0986C39.817 30.0986 29.27 30.1225 28.9114 30.1225C28.4133 30.1225 28.242 30.3057 28.242 31.4453M21.5679 23.1057C16.7545 18.5315 9.14807 18.7267 4.57383 23.536C-0.000418338 28.3493 0.194824 35.9558 5.00416 40.5301C9.81349 45.1043 17.4239 44.9091 21.9942 40.0997C26.5685 35.2904 26.3732 27.6799 21.5639 23.1057" fill="#F37321"></path><path d="M104.227 24.7396V14.5791C104.235 14.3519 104.259 12.3716 102.578 10.6224C101.103 9.09235 98.8601 8.31537 95.9155 8.31537C92.971 8.31537 90.7277 9.09235 89.2614 10.6304C87.7074 12.2521 87.6317 14.1328 87.6357 14.583V24.7436H91.7477V19.5398H100.119V24.7436H104.231L104.227 24.7396ZM91.7397 16.404V14.332C91.7397 13.6905 91.9828 11.9652 95.9115 11.9652C99.8403 11.9652 100.115 13.7861 100.115 14.332V16.404H91.7397ZM48.2725 16.663C48.2725 11.3396 51.3684 8.32732 58.0067 8.32732C61.019 8.32732 63.3738 8.83734 64.3261 9.36729V12.8657C63.3738 12.5031 60.9114 11.9333 58.3892 11.9333C54.2333 11.9333 52.3646 13.6706 52.3646 16.663C52.3646 19.8865 54.1257 21.6237 58.2179 21.6237C60.9552 21.6237 63.1587 21.0938 64.3461 20.6475V23.9347C63.0511 24.6121 60.9313 25.0385 57.8792 25.0385C51.4322 25.0385 48.2725 21.9863 48.2725 16.663ZM80.2643 24.7396V18.189H71.4226V24.7396H67.3305V8.62218H71.4226V14.8341H80.2643V8.62218H84.3365V24.7396H80.2643ZM119.524 24.7396L116.727 19.5039H111.551V24.7396H107.459V8.62218H117.743C121.6 8.62218 123.955 10.0646 123.955 13.9455C123.955 16.6391 122.767 18.2488 120.751 18.97L124.357 24.7396H119.524ZM117.659 16.1928C119.018 16.1928 119.843 15.2604 119.843 14.0491C119.843 12.8378 119.038 12.013 117.552 12.013H111.551V16.1928H117.659ZM127.031 8.62218H131.123V24.7396H127.031V8.62218ZM133.729 16.4717C133.729 11.0647 137.036 8.32732 142.973 8.32732C148.91 8.32732 152.221 11.0607 152.221 16.4717C152.221 21.8827 149.017 25.0385 142.973 25.0385C136.928 25.0385 133.729 21.7711 133.729 16.4717ZM137.825 16.4717C137.825 19.9064 139.371 21.6476 142.957 21.6476C146.543 21.6476 148.109 19.9104 148.109 16.4717C148.109 13.3558 146.539 11.7421 142.957 11.7421C139.375 11.7421 137.825 13.3558 137.825 16.4717ZM159.074 24.7396V12.017H153.201V8.62616H169V12.017H163.147V24.7396H159.074Z" fill="#201751"></path><path d="M63.1903 31.4097V33.9678H54.7789V36.0955H62.3256V38.6217H54.7789V41.1001H63.3178V43.5625H51.6909V31.4097H63.1903ZM69.8245 35.6134L69.9202 43.5625H66.9318V31.4097H69.4261L76.7178 39.3429L76.6221 31.4097H79.5946V43.5625H77.1162L69.8245 35.6134ZM95.1383 31.4097V33.9678H86.7269V36.0955H94.2736V38.6217H86.7269V41.1001H95.2658V43.5625H83.6389V31.4097H95.1383ZM107.98 43.5625L105.869 39.6139H101.968V43.5625H98.8837V31.4097H106.638C109.546 31.4097 111.323 32.4975 111.323 35.4221C111.323 37.4543 110.427 38.6695 108.909 39.2154L111.626 43.5625H107.98ZM106.574 37.1196C107.598 37.1196 108.219 36.4143 108.219 35.5058C108.219 34.5973 107.614 33.9718 106.494 33.9718H101.968V37.1235H106.574V37.1196ZM124.393 43.5625V42.6023C123.401 43.3075 121.93 43.7857 120.121 43.7857C116.125 43.7857 113.786 41.4826 113.786 37.4662C113.786 33.4498 116.121 31.1826 121.831 31.1826C124.727 31.1826 126.389 31.6488 127.27 32.0632V34.7009C126.309 34.3822 124.584 33.904 121.962 33.904C118.3 33.904 116.878 35.215 116.878 37.5339C116.878 39.8529 118.221 41.2117 121.038 41.2117C122.412 41.2117 123.468 40.9567 124.186 40.6538V39.056H121.225V36.6892H127.27V43.5665H124.393V43.5625ZM134.191 38.9245L128.768 31.4097H132.445L135.788 36.6374L139.211 31.4097H142.714L137.279 38.9245V43.5625H134.195V38.9245H134.191Z" fill="#201751"></path><path d="M67.5337 56.1178C66.7766 56.1178 66.4937 55.8509 66.3542 55.7154C65.9199 55.3129 65.9199 54.8707 65.9199 54.6515V54.2929C65.9199 53.6235 66.2068 53.3565 66.3542 53.2211C66.7766 52.8107 67.2986 52.8107 67.5615 52.8107H70.4942V52.7748C70.4942 51.7747 69.8726 51.7747 69.5618 51.7747H66.3263V51.0057H69.4343C70.3945 51.0057 70.7253 51.3244 70.8886 51.4838C71.3947 51.942 71.3947 52.5517 71.3947 52.8585V54.6834C71.3947 55.3807 71.0879 55.6437 70.9325 55.7751C70.5181 56.1218 69.9961 56.1218 69.7331 56.1218H67.5297L67.5337 56.1178ZM69.5698 53.5757H67.7169C66.8244 53.5757 66.8244 54.1016 66.8244 54.3646V54.5559C66.8244 55.3329 67.4221 55.3329 67.7169 55.3329H69.5698C70.4902 55.3329 70.4902 54.8149 70.4902 54.5559V54.3646C70.4902 53.5757 69.8766 53.5757 69.5698 53.5757Z" fill="#201751"></path><path d="M81.6271 49.1768V56.1975H80.5194V52.4959H76.3357V56.1975H75.2319V49.1768H76.3357V51.5356H80.5194V49.1768H81.6271Z" fill="#F37321"></path><path d="M84.2808 56.1975C83.5078 56.1975 83.2049 55.9106 83.0535 55.7672C82.5913 55.3368 82.5913 54.8826 82.5913 54.6595V54.2849C82.5913 53.5996 82.8981 53.3087 83.0535 53.1653C83.5038 52.727 84.0218 52.727 84.2808 52.727H87.1656V52.6991C87.1656 51.8544 86.544 51.8544 86.2332 51.8544H83.0256V50.918H86.2132C87.2094 50.918 87.56 51.2527 87.7353 51.4201C88.2693 51.9062 88.2693 52.5238 88.2693 52.8306V54.6913C88.2693 55.4046 87.9425 55.6795 87.7792 55.819C87.3369 56.1935 86.803 56.1935 86.536 56.1935H84.2768L84.2808 56.1975ZM86.3009 53.6594H84.5477C83.699 53.6594 83.699 54.1375 83.699 54.3726V54.5479C83.699 55.2532 84.2648 55.2532 84.5477 55.2532H86.3009C87.1656 55.2532 87.1656 54.783 87.1656 54.5479V54.3726C87.1656 53.6594 86.5878 53.6594 86.3009 53.6594Z" fill="#F37321"></path><path d="M91.5087 50.918H92.5965C93.6285 50.918 94.0229 51.3165 94.2182 51.5117C94.8079 52.1094 94.8079 52.8146 94.8079 53.1693V56.1935H93.7002V53.225C93.7002 52.5636 93.5289 52.3644 93.4412 52.2608C93.1185 51.8663 92.712 51.8663 92.5088 51.8663H91.5685C90.9788 51.8663 90.7556 52.1293 90.648 52.2608C90.409 52.5636 90.409 53.0019 90.409 53.225V56.1935H89.3013V53.1693C89.3013 52.1054 89.6957 51.7109 89.891 51.5117C90.4807 50.918 91.162 50.918 91.5047 50.918H91.5087Z" fill="#F37321"></path><path d="M99.9044 55.4922C99.3147 56.1975 98.729 56.1975 98.4381 56.1975H97.7568C96.8363 56.1975 96.4737 55.811 96.2905 55.6197C95.7725 55.0779 95.7725 54.4204 95.7725 54.0897V50.918H96.8682V54.0977C96.8682 54.6754 97.0356 54.8507 97.1152 54.9424C97.4021 55.2452 97.7089 55.2452 97.8604 55.2452H98.3385C98.8087 55.2452 98.9999 55.042 99.0956 54.9424C99.3546 54.6754 99.3546 54.2929 99.3546 54.0977V50.918H100.442V54.0977C100.442 54.6754 100.61 54.8507 100.689 54.9424C100.976 55.2452 101.283 55.2452 101.434 55.2452H101.913C102.383 55.2452 102.574 55.042 102.67 54.9424C102.929 54.6754 102.929 54.2929 102.929 54.0977V50.918H104.024V54.0897C104.024 55.0779 103.67 55.4404 103.491 55.6197C102.949 56.1975 102.327 56.1975 102.016 56.1975H101.343C100.486 56.1975 100.092 55.7273 99.8965 55.4922H99.9044Z" fill="#F37321"></path><path d="M107.279 51.8743C106.69 51.8743 106.467 52.1373 106.359 52.2688C106.12 52.5716 106.12 53.0099 106.12 53.233V56.2015H105.012V49.1648H106.12V51.2447C106.598 50.922 107.012 50.922 107.216 50.922H108.303C109.335 50.922 109.73 51.3204 109.925 51.5157C110.515 52.1134 110.515 52.8186 110.515 53.1732V56.1975H109.407V53.229C109.407 52.5676 109.236 52.3684 109.148 52.2648C108.825 51.8703 108.419 51.8703 108.216 51.8703H107.275L107.279 51.8743Z" fill="#F37321"></path><path d="M113.113 56.1975C112.34 56.1975 112.037 55.9106 111.886 55.7672C111.423 55.3368 111.423 54.8826 111.423 54.6595V54.2849C111.423 53.5996 111.73 53.3087 111.886 53.1653C112.336 52.727 112.854 52.727 113.113 52.727H115.998V52.6991C115.998 51.8544 115.376 51.8544 115.065 51.8544H111.858V50.918H115.045C116.041 50.918 116.392 51.2527 116.567 51.4201C117.101 51.9062 117.101 52.5238 117.101 52.8306V54.6913C117.101 55.4046 116.775 55.6795 116.611 55.819C116.169 56.1935 115.635 56.1935 115.368 56.1935H113.109L113.113 56.1975ZM115.133 53.6594H113.38C112.531 53.6594 112.531 54.1375 112.531 54.3726V54.5479C112.531 55.2532 113.097 55.2532 113.38 55.2532H115.133C115.998 55.2532 115.998 54.783 115.998 54.5479V54.3726C115.998 53.6594 115.42 53.6594 115.133 53.6594Z" fill="#F37321"></path><path d="M126.35 56.1178H122.919C121.978 56.1098 121.624 55.7552 121.445 55.5759C120.911 55.0539 120.911 54.3806 120.911 54.0459V53.0936C120.911 52.0775 121.265 51.7269 121.445 51.5555C121.978 51.0256 122.604 51.0136 122.919 51.0057H126.35V51.7946H122.947C122.365 51.7946 122.158 52.0616 122.054 52.197C121.823 52.5278 121.823 52.9302 121.823 53.1334V54.014C121.823 54.6077 121.978 54.8308 122.054 54.9384C122.369 55.3329 122.755 55.3329 122.947 55.3329H126.35V56.1218V56.1178Z" fill="#201751"></path><path d="M131.171 56.1178H129.541C128.601 56.1098 128.246 55.7552 128.067 55.5759C127.533 55.0539 127.533 54.3806 127.533 54.0459V53.0856C127.533 52.0695 127.888 51.7189 128.067 51.5476C128.601 51.0176 129.227 51.0096 129.541 51.0057H131.171C132.119 51.0136 132.47 51.3683 132.645 51.5476C133.187 52.0695 133.187 52.7469 133.187 53.0856V54.0459C133.187 55.0539 132.825 55.4006 132.645 55.5759C132.119 56.1059 131.486 56.1138 131.171 56.1178ZM131.115 55.3289C131.733 55.3289 131.936 55.0659 132.036 54.9344C132.283 54.6117 132.283 54.2092 132.283 54.01V53.1294C132.283 52.5158 132.115 52.3006 132.036 52.1931C131.733 51.7906 131.319 51.7906 131.115 51.7906H129.577C128.98 51.7906 128.776 52.0576 128.673 52.1931C128.434 52.5238 128.434 52.9262 128.434 53.1294V54.01C128.434 54.6156 128.593 54.8268 128.673 54.9344C128.976 55.3289 129.378 55.3289 129.577 55.3289H131.115Z" fill="#201751"></path><path d="M138.379 51.7269C138.913 51.0017 139.534 51.0017 139.845 51.0017H140.491C141.383 51.0017 141.722 51.3682 141.893 51.5515C142.411 52.0655 142.411 52.7071 142.411 53.0258V56.1138H141.519V52.978C141.519 52.4082 141.335 52.2209 141.244 52.1253C140.921 51.7866 140.59 51.7866 140.423 51.7866H139.905C139.415 51.7866 139.2 52.0137 139.092 52.1253C138.825 52.4082 138.825 52.7867 138.825 52.978V56.1138H137.941V52.978C137.941 52.4082 137.757 52.2209 137.666 52.1253C137.343 51.7866 137.012 51.7866 136.845 51.7866H136.327C135.837 51.7866 135.622 52.0137 135.514 52.1253C135.247 52.4082 135.247 52.7867 135.247 52.978V56.1138H134.354V53.0258C134.354 52.0616 134.685 51.7229 134.853 51.5515C135.359 51.0017 135.948 51.0017 136.243 51.0017H136.897C137.845 51.0017 138.204 51.4838 138.379 51.7269Z" fill="#201751"></path><path d="M143.567 53.0816C143.567 52.0655 143.922 51.7149 144.101 51.5436C144.635 51.0136 145.26 51.0057 145.575 51.0017H147.021C147.962 51.0096 148.312 51.3643 148.488 51.5436C149.042 52.0655 149.042 52.7429 149.042 53.0816V54.0419C149.042 55.05 148.671 55.3966 148.488 55.5719C147.962 56.1019 147.34 56.1098 147.033 56.1138H144.471V57.9268H143.567V53.0776V53.0816ZM144.471 53.1374V55.3289H146.978C147.587 55.3289 147.794 55.0659 147.898 54.9344C148.137 54.6117 148.137 54.2092 148.137 54.01V53.1294C148.137 52.5238 147.978 52.3046 147.898 52.193C147.583 51.7906 147.181 51.7906 146.978 51.7906H145.623C145.013 51.7906 144.81 52.0576 144.71 52.193C144.471 52.5238 144.471 52.9342 144.471 53.1374Z" fill="#201751"></path><path d="M151.759 56.1178C151.002 56.1178 150.719 55.8509 150.579 55.7154C150.145 55.3129 150.145 54.8707 150.145 54.6515V54.2929C150.145 53.6235 150.432 53.3565 150.579 53.2211C151.002 52.8107 151.524 52.8107 151.787 52.8107H154.719V52.7748C154.719 51.7747 154.098 51.7747 153.787 51.7747H150.551V51.0057H153.659C154.62 51.0057 154.95 51.3244 155.114 51.4838C155.62 51.942 155.62 52.5517 155.62 52.8585V54.6834C155.62 55.3807 155.313 55.6437 155.158 55.7751C154.743 56.1218 154.221 56.1218 153.958 56.1218H151.755L151.759 56.1178ZM153.799 53.5757H151.946C151.053 53.5757 151.053 54.1016 151.053 54.3646V54.5559C151.053 55.3329 151.651 55.3329 151.946 55.3329H153.799C154.719 55.3329 154.719 54.8149 154.719 54.5559V54.3646C154.719 53.5757 154.106 53.5757 153.799 53.5757Z" fill="#201751"></path><path d="M158.979 51.0017H160.031C161.035 51.0017 161.409 51.3802 161.597 51.5715C162.158 52.1413 162.158 52.8306 162.158 53.1772V56.1178H161.254V53.1932C161.254 52.5437 161.071 52.3285 160.979 52.2209C160.628 51.7906 160.198 51.7906 159.983 51.7906H158.995C158.377 51.7906 158.138 52.0775 158.018 52.2209C157.759 52.5437 157.759 52.974 157.759 53.1932V56.1178H156.855V53.1772C156.855 52.1413 157.23 51.7627 157.417 51.5715C157.979 51.0017 158.644 51.0017 158.975 51.0017H158.979Z" fill="#201751"></path><path d="M168.645 51.0017V56.1696C168.645 57.106 168.318 57.3929 168.155 57.5363C167.693 57.9945 167.02 57.9945 166.681 57.9945H163.649V57.2056H166.808C167.741 57.2056 167.741 56.5322 167.741 56.1975V55.7592C167.37 56.1178 166.86 56.1178 166.605 56.1178H165.35C164.41 56.1098 164.055 55.7552 163.876 55.5759C163.342 55.0539 163.342 54.3885 163.342 54.0538V51.0017H164.246V54.0259C164.246 54.6117 164.406 54.8268 164.485 54.9344C164.788 55.3289 165.195 55.3289 165.398 55.3289H166.569C167.187 55.3289 167.39 55.0659 167.49 54.9344C167.737 54.6117 167.737 54.2212 167.737 54.0259V51.0017H168.641H168.645Z" fill="#201751"></path></g><defs><clipPath id="clip0_848_242"><rect width="169" height="57.6084" fill="white" transform="translate(0 0.386147)"></rect></clipPath></defs></svg>